:SAMPLES-PER-SECOND 30
:FULLY-SPECIFIED
:DEGREES
240
root  -15.2893 34.7497 -8.60459 -172.336 2.48874 179.736
RightUpLeg  -7.7042 -7.58098 1.35971
RightLeg  7.05443 1.65914 0.0988434
RightFoot  3.15952 0.00348172 0.211133
RightToes  -23.0621 -0.0989472 -0.201733
Spine  -2.81707 0.426296 -0.346384
Spine1  -5.70462 0.914696 -0.0601435
HEad  -63.831 -0.852056 5.82031
LeftShoulder1  -1.94126e-019 -3.10601e-018 -2.51263e-017
LeftArm  -12.6975 27.1785 -82.0799
LeftForeArm  32.1178 -16.5304 -2.81475
LeftHand  -0.481625 -2.06845 7.69183
RightShoulder  -4.96962e-017 0 -2.36833e-017
RightArm  -25.8376 -24.1543 78.3499
RightForeArm  58.2602 12.6655 1.40595
RightHand  -0.52606 -0.531837 -12.5689
LeftUpLeg  -6.60759 -5.12129 -1.37415
LeftLeg  6.91087 14.6954 0.819016
LeftFoot  2.21408 -0.0108629 0.72809
LeftToes  -14.1579 1.31424e-006 1.14295e-007
241
root  -15.2843 34.7467 -8.59095 -172.286 2.3571 179.724
RightUpLeg  -7.69081 -7.87737 1.37401
RightLeg  6.89983 1.82917 0.103906
RightFoot  3.23576 0.00261298 0.220832
RightToes  -23.1955 -0.0994665 -0.202005
Spine  -2.79128 0.409993 -0.332903
Spine1  -5.65321 0.880353 -0.0357547
HEad  -64.0852 -0.802097 5.69304
LeftShoulder1  -1.94126e-019 -3.10601e-018 -2.51263e-017
LeftArm  -12.5612 27.1098 -82.1516
LeftForeArm  31.9309 -16.8418 -2.86408
LeftHand  -0.479726 -2.14227 7.59254
RightShoulder  -4.96962e-017 0 -2.36833e-017
RightArm  -25.9856 -24.2053 78.3537
RightForeArm  58.0398 12.6272 1.41163
RightHand  -0.520232 -0.620421 -12.6491
LeftUpLeg  -6.69674 -5.14219 -1.3576
LeftLeg  6.91311 14.5845 0.813524
LeftFoot  2.26419 -0.0105593 0.735856
LeftToes  -14.2447 1.31424e-006 1.14295e-007
242
root  -15.2799 34.7438 -8.57262 -172.266 2.2009 179.72
RightUpLeg  -7.64234 -8.02193 1.38824
RightLeg  6.73727 1.81208 0.0977852
RightFoot  3.28392 0.00244171 0.220548
RightToes  -23.1439 -0.100057 -0.202311
Spine  -2.74424 0.398639 -0.309761
Spine1  -5.55854 0.855897 0.00892919
HEad  -64.5433 -0.786602 5.53833
LeftShoulder1  -1.94126e-019 -3.10601e-018 -2.51263e-017
LeftArm  -12.011 27.0309 -82.2562
LeftForeArm  31.5566 -17.2599 -2.92971
LeftHand  -0.499068 -2.21013 7.82505
RightShoulder  -4.96962e-017 0 -2.36833e-017
RightArm  -25.9623 -24.2184 78.3224
RightForeArm  57.9081 12.5794 1.41755
RightHand  -0.524868 -0.546175 -12.5733
LeftUpLeg  -6.76691 -5.22591 -1.3366
LeftLeg  6.92554 14.5199 0.813119
LeftFoot  2.28764 -0.00987698 0.738654
LeftToes  -14.2036 1.31424e-006 1.14295e-007
243
root  -15.2775 34.7416 -8.55476 -172.276 2.13802 179.715
RightUpLeg  -7.64633 -8.13307 1.39228
RightLeg  6.71953 1.88976 0.101343
RightFoot  3.33085 0.00206307 0.223229
RightToes  -23.2987 -0.100713 -0.20274
Spine  -2.70933 0.409663 -0.282526
Spine1  -5.48825 0.877164 0.0611377
HEad  -64.663 -0.874918 5.40264
LeftShoulder1  -1.94126e-019 -3.10601e-018 -2.51263e-017
LeftArm  -11.468 26.9229 -82.3371
LeftForeArm  31.5151 -17.5703 -2.98078
LeftHand  -0.49539 -2.29046 7.69339
RightShoulder  -4.96962e-017 0 -2.36833e-017
RightArm  -25.8612 -24.1902 78.2786
RightForeArm  57.9581 12.4682 1.42916
RightHand  -0.519986 -0.589377 -12.5644
LeftUpLeg  -6.78881 -5.13842 -1.32807
LeftLeg  6.90785 14.3708 0.800538
LeftFoot  2.32585 -0.00910243 0.740836
LeftToes  -14.2296 1.31424e-006 1.14295e-007
244
root  -15.2769 34.7395 -8.53337 -172.283 2.07181 179.708
RightUpLeg  -7.72739 -8.23456 1.39195
RightLeg  6.84005 1.92599 0.107332
RightFoot  3.27113 0.00174857 0.225018
RightToes  -23.2596 -0.101429 -0.203282
Spine  -2.66576 0.409725 -0.262434
Spine1  -5.40135 0.877365 0.0992534
HEad  -64.6447 -1.00781 5.38012
LeftShoulder1  -1.94126e-019 -3.10601e-018 -2.51263e-017
LeftArm  -10.9747 26.7936 -82.3844
LeftForeArm  31.5066 -17.8317 -3.01871
LeftHand  -0.495255 -2.36059 7.61301
RightShoulder  -4.96962e-017 0 -2.36833e-017
RightArm  -25.9249 -24.0641 78.2642
RightForeArm  58.0672 12.3186 1.44385
RightHand  -0.512216 -0.646979 -12.5215
LeftUpLeg  -6.84187 -5.12463 -1.32287
LeftLeg  6.94579 14.2747 0.804668
LeftFoot  2.34669 -0.00826347 0.742734
LeftToes  -14.3728 1.31424e-006 1.14295e-007
245
root  -15.2769 34.7367 -8.51501 -172.281 2.04961 179.693
RightUpLeg  -7.79858 -8.1857 1.38407
RightLeg  6.92137 1.86573 0.106665
RightFoot  3.25698 0.00183219 0.221162
RightToes  -23.3398 -0.102196 -0.203928
Spine  -2.64487 0.414824 -0.255354
Spine1  -5.36026 0.88574 0.111773
HEad  -64.5947 -1.14769 5.44949
LeftShoulder1  -1.94126e-019 -3.10601e-018 -2.51263e-017
LeftArm  -10.8593 26.7496 -82.4266
LeftForeArm  31.4037 -18.0541 -3.04603
LeftHand  -0.493674 -2.32782 7.63613
RightShoulder  -4.96962e-017 0 -2.36833e-017
RightArm  -26.0678 -24.0069 78.3156
RightForeArm  57.9487 12.2463 1.45147
RightHand  -0.50665 -0.69845 -12.5163
LeftUpLeg  -6.8911 -5.07371 -1.32927
LeftLeg  6.97078 14.2062 0.807029
LeftFoot  2.35257 -0.00738485 0.744634
LeftToes  -14.371 1.31424e-006 1.14295e-007
246
root  -15.2767 34.7347 -8.49027 -172.291 2.04216 179.676
RightUpLeg  -7.88944 -8.04282 1.36898
RightLeg  7.05568 1.71465 0.102151
RightFoot  3.16824 0.00235854 0.211045
RightToes  -23.3672 -0.10301 -0.204668
Spine  -2.61593 0.417829 -0.254405
Spine1  -5.30321 0.894987 0.113706
HEad  -64.4909 -1.29414 5.56723
LeftShoulder1  -1.94126e-019 -3.10601e-018 -2.51263e-017
LeftArm  -10.8608 26.6955 -82.451
LeftForeArm  31.0934 -18.1807 -3.05805
LeftHand  -0.493584 -2.28171 7.6414
RightShoulder  -4.96962e-017 0 -2.36833e-017
RightArm  -26.2723 -23.9022 78.4036
RightForeArm  57.8313 12.2195 1.45465
RightHand  -0.501069 -0.755904 -12.5261
LeftUpLeg  -6.93332 -5.13393 -1.34197
LeftLeg  6.99837 14.2532 0.81646
LeftFoot  2.36585 -0.0064913 0.746821
LeftToes  -14.5649 1.31424e-006 1.14295e-007
247
root  -15.2846 34.7348 -8.46099 -172.299 2.05132 179.627
RightUpLeg  -8.04168 -8.0776 1.30359
RightLeg  7.28493 1.80639 0.114814
RightFoot  3.06725 0.0024618 0.207057
RightToes  -23.7069 -0.103865 -0.205494
Spine  -2.58685 0.409517 -0.253606
Spine1  -5.24552 0.881055 0.116581
HEad  -64.2966 -1.3532 5.57556
LeftShoulder1  -1.94126e-019 -3.10601e-018 -2.51263e-017
LeftArm  -10.9209 26.6473 -82.503
LeftForeArm  30.967 -18.1475 -3.04439
LeftHand  -0.494568 -2.31467 7.66476
RightShoulder  -4.96962e-017 0 -2.36833e-017
RightArm  -26.3653 -23.7394 78.4688
RightForeArm  57.8547 12.2285 1.45365
RightHand  -0.501605 -0.703138 -12.4625
LeftUpLeg  -6.97876 -5.09321 -1.39703
LeftLeg  7.0068 14.2223 0.816797
LeftFoot  2.37931 -0.00561055 0.749627
LeftToes  -14.4082 1.31424e-006 1.14295e-007
248
root  -15.2964 34.7358 -8.42882 -172.265 2.12978 179.563
RightUpLeg  -8.28203 -8.19841 1.22623
RightLeg  7.57167 2.01165 0.137845
RightFoot  2.95687 0.00246848 0.204554
RightToes  -23.9882 -0.104753 -0.206395
Spine  -2.59915 0.432282 -0.247121
Spine1  -5.26974 0.929539 0.130958
HEad  -64.1211 -1.34663 5.46713
LeftShoulder1  -1.94126e-019 -3.10601e-018 -2.51263e-017
LeftArm  -11.0971 26.5715 -82.6425
LeftForeArm  31.1354 -17.8103 -2.99481
LeftHand  -0.494391 -2.31523 7.72486
RightShoulder  -4.96962e-017 0 -2.36833e-017
RightArm  -26.0233 -23.7114 78.4528
RightForeArm  57.6221 12.3577 1.44227
RightHand  -0.502189 -0.60784 -12.4352
LeftUpLeg  -7.03744 -4.88033 -1.47418
LeftLeg  6.94497 14.0683 0.793053
LeftFoot  2.4384 -0.00509946 0.758497
LeftToes  -14.4761 1.31424e-006 1.14295e-007
249
root  -15.3024 34.7374 -8.40414 -172.261 2.18987 179.555
RightUpLeg  -8.38839 -7.96562 1.20897
RightLeg  7.68661 1.84901 0.130515
RightFoot  2.93944 0.00239356 0.203343
RightToes  -24.1332 -0.105669 -0.207363
Spine  -2.56937 0.4444 -0.233997
Spine1  -5.21024 0.957554 0.15737
HEad  -64.1538 -1.27934 5.32127
LeftShoulder1  -1.94126e-019 -3.10601e-018 -2.51263e-017
LeftArm  -11.2828 26.5199 -82.7309
LeftForeArm  31.1991 -17.6719 -2.97587
LeftHand  -0.49483 -2.30027 7.7186
RightShoulder  -4.96962e-017 0 -2.36833e-017
RightArm  -25.8788 -23.6129 78.4802
RightForeArm  57.4342 12.5244 1.42645
RightHand  -0.502404 -0.622777 -12.4236
LeftUpLeg  -7.03531 -4.98481 -1.49259
LeftLeg  6.87291 14.2288 0.784173
LeftFoot  2.47822 -0.00515953 0.776466
LeftToes  -14.5095 1.31424e-006 1.14295e-007
250
root  -15.3127 34.7416 -8.38439 -172.21 2.21365 179.525
RightUpLeg  -8.47229 -7.91299 1.17665
RightLeg  7.68504 1.82234 0.128599
RightFoot  2.95594 0.00225206 0.20323
RightToes  -24.179 -0.106606 -0.208387
Spine  -2.51186 0.436234 -0.224173
Spine1  -5.09408 0.943983 0.180037
HEad  -64.5318 -1.13504 5.15437
LeftShoulder1  -1.94126e-019 -3.10601e-018 -2.51263e-017
LeftArm  -11.3734 26.4879 -82.8061
LeftForeArm  30.9996 -17.6487 -2.97341
LeftHand  -0.493798 -2.25242 7.70477
RightShoulder  -4.96962e-017 0 -2.36833e-017
RightArm  -25.6008 -23.4122 78.4697
RightForeArm  57.0179 12.6776 1.41275
RightHand  -0.504178 -0.649174 -12.373
LeftUpLeg  -7.03806 -4.95393 -1.53365
LeftLeg  6.70977 14.2187 0.74347
LeftFoot  2.54854 -0.00521649 0.794507
LeftToes  -14.4411 1.31424e-006 1.14295e-007
251
root  -15.3243 34.7444 -8.36655 -172.162 2.16176 179.503
RightUpLeg  -8.51115 -7.89561 1.14862
RightLeg  7.61645 1.75826 0.122002
RightFoot  2.99433 0.00205891 0.20402
RightToes  -24.21 -0.107558 -0.20946
Spine  -2.44605 0.406686 -0.213083
Spine1  -4.96178 0.887745 0.204741
HEad  -65.1027 -0.977229 5.06888
LeftShoulder1  -1.94126e-019 -3.10601e-018 -2.51263e-017
LeftArm  -11.2216 26.4777 -82.8389
LeftForeArm  30.891 -17.693 -2.97683
LeftHand  -0.491554 -2.26005 7.66358
RightShoulder  -4.96962e-017 0 -2.36833e-017
RightArm  -25.2942 -23.1845 78.4343
RightForeArm  56.7117 12.798 1.40154
RightHand  -0.505554 -0.634946 -12.3286
LeftUpLeg  -7.093 -4.91619 -1.56102
LeftLeg  6.64386 14.1127 0.721928
LeftFoot  2.59372 -0.00455379 0.801383
LeftToes  -14.6021 1.31424e-006 1.14295e-007
252
root  -15.3359 34.747 -8.34741 -172.146 2.10881 179.493
RightUpLeg  -8.53157 -7.84557 1.12726
RightLeg  7.57139 1.65963 0.113909
RightFoot  3.05885 0.00182916 0.205521
RightToes  -24.3606 -0.108518 -0.21057
Spine  -2.39703 0.398017 -0.203636
Spine1  -4.86346 0.87279 0.223967
HEad  -65.3326 -0.969092 4.96615
LeftShoulder1  -1.94126e-019 -3.10601e-018 -2.51263e-017
LeftArm  -11.0108 26.4568 -82.855
LeftForeArm  30.9274 -17.7009 -2.97787
LeftHand  -0.483604 -2.26155 7.54161
RightShoulder  -4.96962e-017 0 -2.36833e-017
RightArm  -25.0301 -23.0322 78.3668
RightForeArm  56.5453 12.875 1.39401
RightHand  -0.506331 -0.608539 -12.2952
LeftUpLeg  -7.14566 -4.90604 -1.57909
LeftLeg  6.63387 14.0472 0.716214
LeftFoot  2.63982 -0.00401443 0.810099
LeftToes  -14.6981 1.31424e-006 1.14295e-007
253
root  -15.3467 34.7495 -8.32526 -172.133 2.08875 179.486
RightUpLeg  -8.57355 -7.81924 1.11202
RightLeg  7.55779 1.6178 0.11068
RightFoot  3.08594 0.00157778 0.207538
RightToes  -24.3795 -0.109482 -0.21171
Spine  -2.34987 0.397696 -0.193083
Spine1  -4.76851 0.874047 0.245909
HEad  -65.3591 -0.984305 4.87589
LeftShoulder1  -1.94126e-019 -3.10601e-018 -2.51263e-017
LeftArm  -10.8516 26.4162 -82.866
LeftForeArm  31.0718 -17.6048 -2.9621
LeftHand  -0.486668 -2.32106 7.53378
RightShoulder  -4.96962e-017 0 -2.36833e-017
RightArm  -24.734 -22.8875 78.2725
RightForeArm  56.4639 12.9245 1.389
RightHand  -0.505841 -0.639274 -12.2897
LeftUpLeg  -7.20878 -4.95342 -1.59617
LeftLeg  6.65915 14.0774 0.723887
LeftFoot  2.65375 -0.0032738 0.815509
LeftToes  -14.5469 1.31424e-006 1.14295e-007
254
root  -15.3556 34.7495 -8.30135 -172.114 2.08356 179.481
RightUpLeg  -8.66726 -7.73526 1.09816
RightLeg  7.63388 1.51478 0.105723
RightFoot  3.07229 0.00131974 0.209878
RightToes  -24.4568 -0.110441 -0.212869
Spine  -2.31596 0.402494 -0.190204
Spine1  -4.70098 0.88562 0.251004
HEad  -65.3932 -0.985114 4.98919
LeftShoulder1  -1.94126e-019 -3.10601e-018 -2.51263e-017
LeftArm  -10.8602 26.3752 -82.8514
LeftForeArm  31.1461 -17.4379 -2.93343
LeftHand  -0.498332 -2.39447 7.6418
RightShoulder  -4.96962e-017 0 -2.36833e-017
RightArm  -24.5481 -22.7663 78.1831
RightForeArm  56.5157 12.9372 1.38708
RightHand  -0.505447 -0.616539 -12.2803
LeftUpLeg  -7.28697 -5.03962 -1.60881
LeftLeg  6.70321 14.1548 0.738585
LeftFoot  2.65569 -0.00250014 0.820129
LeftToes  -14.4917 1.31424e-006 1.14295e-007
